<?xml version="1.0" encoding="UTF-8" standalone="no"?>
<svg
   xmlns:dc="http://purl.org/dc/elements/1.1/"
   xmlns:cc="http://creativecommons.org/ns#"
   xmlns:rdf="http://www.w3.org/1999/02/22-rdf-syntax-ns#"
   xmlns:svg="http://www.w3.org/2000/svg"
   xmlns="http://www.w3.org/2000/svg"
   xmlns:sodipodi="http://sodipodi.sourceforge.net/DTD/sodipodi-0.dtd"
   xmlns:inkscape="http://www.inkscape.org/namespaces/inkscape"
   width="16"
   height="16"
   fill="currentColor"
   class="bi bi-droplet-fill"
   viewBox="0 0 16 16"
   version="1.1"
   id="svg4"
   sodipodi:docname="s.svg"
   inkscape:version="1.0.2-2 (e86c870879, 2021-01-15)">
  <metadata
     id="metadata10">
    <rdf:RDF>
      <cc:Work
         rdf:about="">
        <dc:format>image/svg+xml</dc:format>
        <dc:type
           rdf:resource="http://purl.org/dc/dcmitype/StillImage" />
      </cc:Work>
    </rdf:RDF>
  </metadata>
  <defs
     id="defs8">
    <clipPath
       id="clip0">
      <rect
         x="564"
         y="50"
         width="44"
         height="34"
         id="rect831" />
    </clipPath>
  </defs>
  <sodipodi:namedview
     pagecolor="#ffffff"
     bordercolor="#666666"
     borderopacity="1"
     objecttolerance="10"
     gridtolerance="10"
     guidetolerance="10"
     inkscape:pageopacity="0"
     inkscape:pageshadow="2"
     inkscape:window-width="1858"
     inkscape:window-height="1057"
     id="namedview6"
     showgrid="false"
     inkscape:zoom="10.533942"
     inkscape:cx="8"
     inkscape:cy="19.505618"
     inkscape:window-x="-8"
     inkscape:window-y="-8"
     inkscape:window-maximized="1"
     inkscape:current-layer="svg4"
     inkscape:document-rotation="0" />
  <path
     d="m 2.3879172,3.2360032 c -0.3317024,0 -0.5934602,0.2498341 -0.5934602,0.5666416 v 6.3081872 c 0,0.317609 0.2617578,0.566671 0.5934602,0.566671 H 3.843315 C 3.9541879,9.9902511 4.5711666,9.4763877 5.306654,9.4763877 c 0.7278516,0 1.3524662,0.5138634 1.4557032,1.2011153 H 8.8185458 V 3.8026448 c 0,-0.3097381 -0.260536,-0.5666416 -0.593155,-0.5666416 z"
     stroke="#ff66cc"
     stroke-width="1.33333"
     stroke-linejoin="round"
     stroke-miterlimit="10"
     fill="#7030a0"
     fill-rule="evenodd"
     id="path836"
     style="stroke:#ff00aa;stroke-width:0.394125;stroke-miterlimit:10;stroke-dasharray:none;stroke-opacity:1;fill:#9c65c4;fill-opacity:1" />
  <path
     d="m 7.292287,3.2360032 c 0.2944389,0 0.5250431,0.2495479 0.5250431,0.5660406 V 10.676701 H 8.8121318 V 3.8020438 c 0.0067,-0.3093947 -0.23152,-0.5660406 -0.525043,-0.5660406 z"
     stroke="#ff66cc"
     stroke-width="1.33333"
     stroke-linejoin="round"
     stroke-miterlimit="10"
     fill="#7030a0"
     fill-rule="evenodd"
     id="path838"
     style="stroke:#ff00aa;stroke-width:0.394125;stroke-miterlimit:10;stroke-dasharray:none;stroke-opacity:1;fill:#9c65c4;fill-opacity:1" />
  <path
     d="m 8.8194618,4.6678336 v 6.0088674 h 1.2770242 c 0.116676,-0.6930041 0.767864,-1.198797 1.543669,-1.198797 0.767863,0 1.426687,0.5057929 1.535727,1.198797 h 1.126443 c 0.342088,0 0.625837,-0.255645 0.625837,-0.564781 V 7.3218443 C 14.919606,7.1259612 14.844472,6.9301065 14.693893,6.7861708 L 12.866781,4.9392193 C 12.699402,4.7661473 12.457498,4.6678336 12.1991,4.6678336 Z"
     stroke="#ff66cc"
     stroke-width="1.33333"
     stroke-linejoin="round"
     stroke-miterlimit="10"
     fill="#7030a0"
     fill-rule="evenodd"
     id="path840"
     style="stroke:#ff00aa;stroke-width:0.394125;stroke-miterlimit:10;stroke-dasharray:none;stroke-opacity:1;fill:#9c65c4;fill-opacity:1" />
  <path
     d="m 11.291042,4.6670608 c -0.0095,0 -0.01863,7.73e-4 -0.02718,7.73e-4 h 0.05345 c -0.0085,0 -0.01802,-7.73e-4 -0.02626,-7.73e-4 z m 0.02626,7.73e-4 v 0 c 0.231214,0.00707 0.44563,0.1030361 0.595904,0.2635148 l 0.357664,0.3775704 0.561084,0.5805228 0.861327,0.8967292 c 0.145692,0.1439358 0.226938,0.3397903 0.226938,0.5356734 V 10.11192 c 0,0.309137 -0.276113,0.564781 -0.609343,0.564781 h 1.007935 c 0.332925,0 0.609344,-0.255644 0.609344,-0.564781 V 7.3218444 C 14.919607,7.1259613 14.838364,6.9301068 14.700308,6.786171 L 13.838981,5.8894416 13.278507,5.3089187 12.920843,4.9313485 C 12.750716,4.7661473 12.522556,4.6678336 12.270878,4.6678336 Z"
     stroke="#ff66cc"
     stroke-width="1.33333"
     stroke-linejoin="round"
     stroke-miterlimit="10"
     fill="#7030a0"
     fill-rule="evenodd"
     id="path842"
     style="stroke:#ff00aa;stroke-width:0.394125;stroke-miterlimit:10;stroke-dasharray:none;stroke-opacity:1;fill:#9c65c4;fill-opacity:1" />
  <path
     d="m 10.649323,5.5256953 c -0.163713,0 -0.302686,0.1322584 -0.294134,0.2962862 V 7.518214 c -0.0076,0.1597346 0.122785,0.2963148 0.28039,0.2963148 0.0043,0 0.0095,0 0.01375,0 h 1.846049 c 0.163408,0 0.293829,-0.1314284 0.293829,-0.2885871 V 6.8757836 c 0,-0.073843 -0.02382,-0.139986 -0.06475,-0.1975145 l -0.8992,-1.0452445 C 11.768131,5.5669098 11.686581,5.5256953 11.605335,5.5256953 Z"
     stroke="#ff66cc"
     stroke-width="1.33333"
     stroke-linejoin="round"
     stroke-miterlimit="10"
     fill="#7030a0"
     fill-rule="evenodd"
     id="path844"
     style="stroke:#ff00aa;stroke-width:0.394125;stroke-miterlimit:10;stroke-dasharray:none;stroke-opacity:1;fill:#9c65c4;fill-opacity:1" />
  <path
     d="m 10.26417,4.0954678 c -0.126145,0 -0.222968,0.1064993 -0.222968,0.2453405 v 0.3262525 h 1.83261 V 4.3408083 c 0,-0.1388412 -0.09682,-0.2453405 -0.222967,-0.2453405 z"
     stroke="#ff66cc"
     stroke-width="1.33333"
     stroke-linejoin="round"
     stroke-miterlimit="10"
     fill="#7030a0"
     fill-rule="evenodd"
     id="path846"
     style="stroke:#ff00aa;stroke-width:0.394125;stroke-miterlimit:10;stroke-dasharray:none;stroke-opacity:1;fill:#9c65c4;fill-opacity:1" />
  <path
     d="m 10.784937,2.9504501 c -0.407757,0 -0.742818,0.2757647 -0.742818,0.6112046 v 0.5322962 h 1.525342 V 3.5616547 c 0,-0.3354399 -0.327426,-0.6112046 -0.734265,-0.6112046 z"
     stroke="#ff66cc"
     stroke-width="1.33333"
     stroke-linejoin="round"
     stroke-miterlimit="10"
     fill="#7030a0"
     fill-rule="evenodd"
     id="path848"
     style="stroke:#ff00aa;stroke-width:0.394125;stroke-miterlimit:10;stroke-dasharray:none;stroke-opacity:1;fill:#9c65c4;fill-opacity:1" />
  <path
     d="m 10.907111,2.9504501 c -0.0898,0 -0.172266,0.013051 -0.255038,0.045965 0.248012,0.098085 0.413253,0.3285707 0.413253,0.5782616 v 0.519274 h 0.503051 V 3.5746773 C 11.561377,3.2262148 11.26508,2.9504501 10.907111,2.9504501 Z"
     stroke="#ff66cc"
     stroke-width="1.33333"
     stroke-linejoin="round"
     stroke-miterlimit="10"
     fill="#7030a0"
     fill-rule="evenodd"
     id="path850"
     style="stroke:#ff00aa;stroke-width:0.394125;stroke-miterlimit:10;stroke-dasharray:none;stroke-opacity:1;fill:#9c65c4;fill-opacity:1" />
  <path
     d="m 5.4184433,9.5326564 c -1.4004195,0 -2.095895,1.5342946 -1.1154487,2.4402966 0.3185687,0.290533 0.7113582,0.421017 1.0962062,0.421017 0.8020723,0 1.5736011,-0.565869 1.5787936,-1.426277 C 6.9868544,10.177749 6.281908,9.5326564 5.4184433,9.5326564 Z"
     stroke="#ff66cc"
     stroke-width="1.33333"
     stroke-linejoin="round"
     stroke-miterlimit="10"
     fill="#7030a0"
     fill-rule="evenodd"
     id="path852"
     style="stroke:#ff00aa;stroke-width:0.394125;stroke-miterlimit:10;stroke-dasharray:none;stroke-opacity:1;fill:#9c65c4;fill-opacity:1" />
  <path
     d="m 6.3423841,9.818868 c 0.7089146,1.016595 -0.1887588,2.162986 -1.2809943,2.162986 -0.2700046,0 -0.5510048,-0.07038 -0.8234528,-0.229112 v 0 c 0.2947448,0.421504 0.7858843,0.64203 1.2837433,0.64203 0.3869861,0 0.7782484,-0.133747 1.0821561,-0.408997 C 7.292287,11.35548 7.1691967,10.299016 6.3503255,9.818868 Z"
     stroke="#ff66cc"
     stroke-width="1.33333"
     stroke-linejoin="round"
     stroke-miterlimit="10"
     fill="#7030a0"
     fill-rule="evenodd"
     id="path854"
     style="stroke:#ff00aa;stroke-width:0.394125;stroke-miterlimit:10;stroke-dasharray:none;stroke-opacity:1;fill:#9c65c4;fill-opacity:1" />
  <path
     d="m 5.4181379,10.392035 c -0.5855189,0 -0.8747659,0.613094 -0.4700646,0.974637 0.1334752,0.116716 0.2987154,0.169465 0.460596,0.169465 0.3375057,0 0.6609614,-0.22748 0.6609614,-0.57394 0,-0.317838 -0.2968829,-0.570162 -0.6514928,-0.570162 z"
     stroke="#ff66cc"
     stroke-width="1.33333"
     stroke-linejoin="round"
     stroke-miterlimit="10"
     fill="#7030a0"
     fill-rule="evenodd"
     id="path856"
     style="stroke:#ff00aa;stroke-width:0.394125;stroke-miterlimit:10;stroke-dasharray:none;stroke-opacity:1;fill:#9c65c4;fill-opacity:1" />
  <path
     d="m 11.65451,9.5326564 c -1.278856,0 -1.9178262,1.5342946 -1.016793,2.4402966 0.292606,0.290533 0.652714,0.421017 1.007019,0.421017 0.737015,0 1.445318,-0.565869 1.450816,-1.426277 0,-0.789944 -0.639886,-1.4350366 -1.441042,-1.4350366 z"
     stroke="#ff66cc"
     stroke-width="1.33333"
     stroke-linejoin="round"
     stroke-miterlimit="10"
     fill="#7030a0"
     fill-rule="evenodd"
     id="path858"
     style="stroke:#ff00aa;stroke-width:0.394125;stroke-miterlimit:10;stroke-dasharray:none;stroke-opacity:1;fill:#9c65c4;fill-opacity:1" />
  <path
     d="m 12.467578,9.818868 c 0.385153,0.555193 0.302991,1.281684 -0.212889,1.746978 -0.293827,0.272903 -0.683257,0.412889 -1.076963,0.412889 -0.286193,0 -0.575745,-0.07431 -0.831089,-0.225993 v 0 c 0.294745,0.421504 0.789244,0.64203 1.287104,0.64203 0.387901,0 0.778248,-0.133747 1.079711,-0.408997 0.687535,-0.630295 0.564444,-1.679746 -0.245874,-2.166907 z"
     stroke="#ff66cc"
     stroke-width="1.33333"
     stroke-linejoin="round"
     stroke-miterlimit="10"
     fill="#7030a0"
     fill-rule="evenodd"
     id="path860"
     style="stroke:#ff00aa;stroke-width:0.394125;stroke-miterlimit:10;stroke-dasharray:none;stroke-opacity:1;fill:#9c65c4;fill-opacity:1" />
  <path
     d="m 11.653288,10.392035 c -0.459374,0 -0.695781,0.613094 -0.367133,0.974637 0.106292,0.116716 0.237629,0.169465 0.366522,0.169465 0.268478,0 0.52596,-0.22748 0.52596,-0.57394 0,-0.317838 -0.236408,-0.570162 -0.525349,-0.570162 z"
     stroke="#ff66cc"
     stroke-width="1.33333"
     stroke-linejoin="round"
     stroke-miterlimit="10"
     fill="#7030a0"
     fill-rule="evenodd"
     id="path862"
     style="stroke:#ff00aa;stroke-width:0.394125;stroke-miterlimit:10;stroke-dasharray:none;stroke-opacity:1;fill:#9c65c4;fill-opacity:1" />
  <path
     d="m 5.065055,4.6670608 c -0.1731817,0 -0.3127654,0.1126529 -0.3127654,0.2597083 V 5.6210896 H 3.9389162 c -0.1722654,0 -0.3118492,0.1192643 -0.3118492,0.2663198 v 0.4140908 c 0,0.1397285 0.1395838,0.2663198 0.3118492,0.2663198 h 0.805432 v 0.694292 c 0,0.1470554 0.1398892,0.2663197 0.3207068,0.2663197 h 0.4761731 c 0.1722653,0 0.3197905,-0.1192643 0.3121546,-0.2663197 V 6.56782 h 0.8130679 c 0.00427,0 0.00855,0 0.013745,0 0.1661566,0 0.3057405,-0.1229278 0.2981046,-0.2663198 V 5.8874094 c 0,-0.1470555 -0.1395838,-0.2663198 -0.3042133,-0.2663198 H 5.8610186 V 4.9267691 c 0,-0.1470554 -0.1475252,-0.2597083 -0.3118492,-0.2597083 z"
     stroke="#ff66cc"
     stroke-width="1.33333"
     stroke-linejoin="round"
     stroke-miterlimit="10"
     fill="#7030a0"
     fill-rule="evenodd"
     id="path864"
     style="stroke:#ff00aa;stroke-width:0.394125;stroke-miterlimit:10;stroke-dasharray:none;stroke-opacity:1;fill:#9c65c4;fill-opacity:1" />
  <path
     d="M 8.8203788,8.9609772 V 10.67673 h 1.2761072 c 0.116676,-0.663439 0.776416,-1.153862 1.543058,-1.153862 0.0061,0 0.0116,0 0.01741,0 0.768779,0 1.410193,0.488163 1.526869,1.146334 h 1.117586 c 0.342087,0 0.625837,-0.244453 0.625837,-0.540052 V 8.9609772 Z"
     stroke="#ff66cc"
     stroke-width="1.33333"
     stroke-linejoin="round"
     stroke-miterlimit="10"
     fill="#7030a0"
     fill-rule="evenodd"
     id="path866"
     style="stroke:#ff00aa;stroke-width:0.394125;stroke-miterlimit:10;stroke-dasharray:none;stroke-opacity:1;fill:#9c65c4;fill-opacity:1" />
  <path
     d="m 13.78614,8.9609772 v 1.1732958 c 0,0.296916 -0.31307,0.542457 -0.690588,0.542457 h 1.142021 c 0.377519,0 0.690589,-0.245541 0.690589,-0.542457 V 8.9609772 Z"
     stroke="#ff66cc"
     stroke-width="1.33333"
     stroke-linejoin="round"
     stroke-miterlimit="10"
     fill="#7030a0"
     fill-rule="evenodd"
     id="path868"
     style="stroke:#ff00aa;stroke-width:0.394125;stroke-miterlimit:10;stroke-dasharray:none;stroke-opacity:1;fill:#9c65c4;fill-opacity:1" />
  <path
     d="m 1.7953733,8.9602332 v 1.1686588 c 0,0.30327 0.2687828,0.547838 0.5925439,0.547838 h 1.4615065 c 0.110262,-0.656197 0.7269353,-1.1468496 1.4538705,-1.1468496 0.7342658,0 1.350939,0.4906526 1.4615065,1.1468496 H 8.8185458 V 8.9602332 Z"
     stroke="#ff66cc"
     stroke-width="1.33333"
     stroke-linejoin="round"
     stroke-miterlimit="10"
     fill="#7030a0"
     fill-rule="evenodd"
     id="path870"
     style="stroke:#ff00aa;stroke-width:0.394125;stroke-miterlimit:10;stroke-dasharray:none;stroke-opacity:1;fill:#9c65c4;fill-opacity:1" />
  <path
     d="M 7.903768,8.9609772 V 10.67673 H 8.8188508 V 8.9609772 Z"
     stroke="#ff66cc"
     stroke-width="1.33333"
     stroke-linejoin="round"
     stroke-miterlimit="10"
     fill="#7030a0"
     fill-rule="evenodd"
     id="path872"
     style="stroke:#ff00aa;stroke-width:0.394125;stroke-miterlimit:10;stroke-dasharray:none;stroke-opacity:1;fill:#9c65c4;fill-opacity:1" />
</svg>
